<?xml version="1.0" standalone="no"?>
<!DOCTYPE svg PUBLIC "-//W3C//DTD SVG 20010904//EN"
 "http://www.w3.org/TR/2001/REC-SVG-20010904/DTD/svg10.dtd">
<svg version="1.0" xmlns="http://www.w3.org/2000/svg"
 width="200.000000pt" height="200.000000pt" viewBox="0 0 200.000000 200.000000"
 preserveAspectRatio="xMidYMid meet">

<g transform="translate(0.000000,200.000000) scale(0.100000,-0.100000)"
fill="#000000" stroke="none">
<path d="M760 1878 c-19 -5 -46 -18 -60 -27 -14 -10 -49 -21 -77 -25 -114 -14
-167 -55 -225 -170 -66 -131 -109 -307 -128 -526 -20 -238 -9 -305 58 -325
l32 -9 0 -196 c0 -240 9 -279 81 -355 27 -28 71 -64 97 -78 94 -51 141 -57
453 -57 157 0 311 5 340 10 123 23 255 122 288 216 10 26 15 107 18 251 4 190
7 213 21 213 22 1 46 19 60 47 7 13 12 69 12 140 0 275 -52 518 -147 696 -50
91 -93 124 -189 140 -39 7 -81 19 -95 29 -14 9 -43 21 -65 27 -49 14 -426 13
-474 -1z m505 -34 c33 -17 44 -31 63 -78 28 -69 41 -188 23 -210 -18 -22 -684
-22 -702 0 -17 21 -6 136 21 206 36 98 69 108 345 105 191 -2 214 -4 250 -23z
m-610 -56 c-40 -130 -46 -217 -16 -247 18 -18 37 -19 363 -19 392 0 378 -3
378 79 0 59 -17 144 -37 183 l-15 29 43 -7 c85 -13 111 -34 143 -112 34 -83
31 -103 -19 -166 -103 -128 -114 -161 -122 -380 l-6 -158 -368 0 -369 0 0 103
c0 224 -26 321 -115 425 -61 71 -63 88 -29 180 29 76 30 77 79 94 28 9 61 17
74 18 20 0 22 -3 16 -22z m-221 -175 c-67 -203 -114 -438 -130 -653 -10 -134
-25 -85 -18 60 11 234 50 443 109 576 25 57 73 144 79 144 1 0 -17 -57 -40
-127z m1151 22 c85 -178 126 -392 124 -650 l-1 -130 -14 125 c-29 267 -74 485
-140 669 -37 104 -23 98 31 -14z m-1064 -163 c61 -70 71 -112 76 -318 l5 -181
-53 -47 c-67 -58 -166 -109 -205 -104 l-29 3 3 70 c7 173 57 471 103 622 l21
66 20 -34 c11 -19 38 -53 59 -77z m1093 -113 c32 -145 53 -295 62 -431 l7
-108 -30 0 c-46 0 -151 58 -210 115 l-53 51 0 105 c0 121 15 259 34 303 7 17
34 56 60 86 27 30 53 66 59 79 11 23 13 22 29 -31 9 -31 28 -107 42 -169z
m-225 -441 c54 -271 64 -333 64 -398 1 -123 -39 -247 -113 -347 l-32 -43 -303
0 -304 0 -30 37 c-41 49 -87 146 -107 223 -22 87 -15 194 26 408 l34 172 377
0 378 0 10 -52z m-819 -139 c-42 -211 -46 -279 -26 -370 17 -77 60 -178 97
-231 12 -16 19 -32 15 -35 -9 -9 -92 26 -143 60 -63 43 -109 105 -122 167 -6
28 -11 139 -11 245 0 179 1 195 18 195 23 0 108 50 157 93 22 19 41 34 43 32
1 -1 -11 -72 -28 -156z m1020 36 l30 -7 0 -202 c0 -150 -4 -215 -15 -253 -21
-71 -81 -134 -167 -178 -90 -45 -107 -45 -75 -2 35 46 73 124 93 192 26 90 22
211 -15 400 -17 88 -31 161 -31 162 0 1 34 -22 75 -52 41 -29 88 -56 105 -60z"/>
<path d="M620 580 c0 -6 133 -10 379 -10 243 0 382 4 386 10 4 7 -125 10 -379
10 -251 0 -386 -4 -386 -10z"/>
</g>
</svg>
